<svg width="64" height="64" viewBox="0 0 64 64" fill="none" xmlns="http://www.w3.org/2000/svg">
<path d="M60.7349 57C60.7349 60.866 57.6009 64 53.7349 64H10.2649C6.3989 64 3.26489 60.866 3.26489 57V7C3.26489 3.13401 6.3989 0 10.2649 0H37.0541C38.8728 0 40.6202 0.707861 41.9261 1.97369L58.6069 18.1423C59.9671 19.4608 60.7349 21.2743 60.7349 23.1686V57ZM5.51489 54.75C5.51489 58.616 8.6489 61.75 12.5149 61.75H51.4849C55.3509 61.75 58.4849 58.616 58.4849 54.75V24.1212C58.4849 22.2268 57.7171 20.4133 56.3567 19.0948L41.0136 4.22356C39.7077 2.95781 37.9604 2.25 36.1417 2.25H12.5149C8.64889 2.25 5.51489 5.38401 5.51489 9.25V54.75Z" fill="#DC6969"/>
<path d="M59.635 21.7712H38.3325V1.12H40.5825V19.5212H59.635V21.7712Z" fill="#DC6969"/>
<path d="M21.25 22.75C19.5689 22.75 17.9255 22.2515 16.5277 21.3175C15.1298 20.3835 14.0404 19.056 13.397 17.5028C12.7537 15.9496 12.5854 14.2406 12.9133 12.5917C13.2413 10.9429 14.0508 9.42834 15.2396 8.2396C16.4283 7.05085 17.9429 6.2413 19.5917 5.91333C21.2406 5.58535 22.9496 5.75368 24.5028 6.39703C26.056 7.04037 27.3835 8.12984 28.3175 9.52766C29.2515 10.9255 29.75 12.5689 29.75 14.25C29.7474 16.5035 28.851 18.664 27.2575 20.2575C25.664 21.851 23.5035 22.7474 21.25 22.75V22.75ZM21.25 8C20.0139 8 18.8055 8.36656 17.7777 9.05332C16.7499 9.74008 15.9488 10.7162 15.4758 11.8582C15.0027 13.0003 14.8789 14.2569 15.1201 15.4693C15.3613 16.6817 15.9565 17.7953 16.8306 18.6694C17.7047 19.5435 18.8183 20.1388 20.0307 20.3799C21.2431 20.6211 22.4997 20.4973 23.6418 20.0243C24.7838 19.5512 25.7599 18.7501 26.4467 17.7223C27.1334 16.6945 27.5 15.4861 27.5 14.25C27.498 12.593 26.8389 11.0045 25.6672 9.83278C24.4956 8.66111 22.907 8.00199 21.25 8V8Z" fill="#DC6969"/>
<path d="M32.2286 28.75H29.9786V26.2087C29.9786 25.0484 29.5176 23.9356 28.6972 23.1151C27.8767 22.2947 26.7639 21.8337 25.6036 21.8337H24.9573L24.1948 20.5262L25.6036 19.7037V19.5787H25.8036L26.1373 19.3837L26.2623 19.6087C27.8952 19.7754 29.4082 20.5415 30.509 21.7589C31.6099 22.9764 32.2203 24.5587 32.2223 26.2L32.2286 28.75Z" fill="#DC6969"/>
<path d="M13.1038 28.75H10.8538V26.2087C10.8557 24.542 11.485 22.9371 12.6164 21.7132C13.7479 20.4894 15.2986 19.7363 16.96 19.6037L17.3188 19.2062L18.9913 20.7062L17.9813 21.8312H17.4813C16.3209 21.8312 15.2081 22.2922 14.3877 23.1126C13.5672 23.9331 13.1063 25.0459 13.1063 26.2062L13.1038 28.75Z" fill="#DC6969"/>
<path d="M53.125 32.6875H10.875V34.9375H53.125V32.6875Z" fill="#DC6969"/>
<path d="M53.125 39.4788H10.875V41.7288H53.125V39.4788Z" fill="#DC6969"/>
<path d="M53.125 46.2712H10.875V48.5212H53.125V46.2712Z" fill="#DC6969"/>
<path d="M32.9588 53.0625H10.875V55.3125H32.9588V53.0625Z" fill="#DC6969"/>
</svg>
